<svg width="32" height="32" xmlns="http://www.w3.org/2000/svg"><path d="M10.43 29c11.33 0 17.52-9.62 17.52-17.96 0-.27 0-.54-.02-.81 1.2-.9 2.25-2 3.07-3.27-1.1.5-2.29.84-3.53 1a6.3 6.3 0 002.7-3.5c-1.19.73-2.5 1.25-3.9 1.53A6.08 6.08 0 0021.76 4a6.24 6.24 0 00-6.15 6.31c0 .5.05.98.15 1.44A17.34 17.34 0 013.1 5.15a6.41 6.41 0 001.9 8.43 6 6 0 01-2.78-.79v.08c0 3.06 2.12 5.61 4.93 6.19a6.03 6.03 0 01-2.78.1 6.18 6.18 0 005.75 4.4A12.16 12.16 0 011 26.15 17.11 17.11 0 0010.43 29" fill="#0F0F0F" fill-rule="evenodd"/></svg>