<svg width="32" height="32" xmlns="http://www.w3.org/2000/svg"><g fill="#0F0F0F" fill-rule="evenodd"><path d="M16 1c4.07 0 4.58.03 6.18.1a11 11 0 013.64.7c.98.38 1.82.9 2.65 1.73a7.35 7.35 0 011.73 2.65 11 11 0 01.7 3.64c.07 1.6.1 2.11.1 6.18 0 4.08-.03 4.59-.1 6.19a11 11 0 01-.7 3.64c-.38.98-.9 1.82-1.73 2.65a7.35 7.35 0 01-2.65 1.73 11 11 0 01-3.64.7c-1.6.07-2.11.09-6.18.09-4.08 0-4.59-.02-6.19-.09a11 11 0 01-3.64-.7 7.35 7.35 0 01-2.65-1.73 7.35 7.35 0 01-1.73-2.65 11 11 0 01-.7-3.64C1.02 20.59 1 20.08 1 16c0-4.07.02-4.58.09-6.18a11 11 0 01.7-3.64c.38-.98.9-1.82 1.73-2.65A7.35 7.35 0 016.17 1.8a11 11 0 013.64-.7c1.6-.07 2.11-.1 6.19-.1zm0 2.71c-4 0-4.48.02-6.06.09a8.3 8.3 0 00-2.79.52c-.7.27-1.2.6-1.72 1.12A4.65 4.65 0 004.3 7.16a8.3 8.3 0 00-.52 2.79C3.72 11.53 3.7 12 3.7 16s.02 4.48.09 6.06a8.3 8.3 0 00.52 2.79c.27.7.6 1.2 1.12 1.72.52.53 1.02.85 1.72 1.12.53.21 1.32.45 2.79.52 1.58.07 2.05.09 6.06.09 4 0 4.47-.02 6.05-.09a8.3 8.3 0 002.79-.52c.7-.27 1.2-.6 1.72-1.12.53-.52.85-1.02 1.12-1.72.21-.53.45-1.32.52-2.79.07-1.58.09-2.05.09-6.06 0-4-.02-4.47-.09-6.05a8.3 8.3 0 00-.52-2.79c-.27-.7-.6-1.2-1.12-1.72a4.65 4.65 0 00-1.72-1.12 8.3 8.3 0 00-2.79-.52C20.47 3.73 20 3.7 16 3.7z"/><path d="M16 21.2a5.2 5.2 0 110-10.4 5.2 5.2 0 010 10.4zM16 8a8 8 0 100 16 8 8 0 000-16zM26 8a2 2 0 11-4 0 2 2 0 014 0"/></g></svg>